<svg width="21" height="21" viewBox="0 0 21 21" fill="none" xmlns="http://www.w3.org/2000/svg">
<path d="M2.83822 4.7209L5.0223 2.53887C5.17637 2.38412 5.35949 2.26134 5.56115 2.17758C5.76281 2.09382 5.97904 2.05073 6.1974 2.05078C6.64242 2.05078 7.06078 2.2251 7.37455 2.53887L9.72474 4.88906C9.87949 5.04313 10.0023 5.22625 10.086 5.42791C10.1698 5.62957 10.2129 5.8458 10.2128 6.06416C10.2128 6.50918 10.0385 6.92754 9.72474 7.24131L8.00619 8.95986C8.40846 9.84654 8.96775 10.6532 9.65707 11.3408C10.3446 12.0318 11.1512 12.5931 12.038 12.9979L13.7566 11.2793C13.9106 11.1246 14.0938 11.0018 14.2954 10.918C14.4971 10.8343 14.7133 10.7912 14.9317 10.7912C15.3767 10.7912 15.7951 10.9655 16.1088 11.2793L18.4611 13.6274C18.616 13.7818 18.7389 13.9653 18.8227 14.1673C18.9064 14.3693 18.9494 14.5859 18.9492 14.8046C18.9492 15.2496 18.7748 15.668 18.4611 15.9817L16.2811 18.1617C15.7807 18.6642 15.0896 18.9492 14.38 18.9492C14.2303 18.9492 14.0868 18.9369 13.9452 18.9123C11.1808 18.457 8.4389 16.9866 6.22611 14.7759C4.01537 12.5672 2.54701 9.82734 2.08558 7.05469C1.94613 6.20771 2.22709 5.33613 2.83822 4.7209Z" fill="white"/>
</svg>
