<svg width="146" height="27" viewBox="0 0 146 27" fill="none" xmlns="http://www.w3.org/2000/svg">
<path d="M12.2468 2.92705C12.5461 2.00574 13.8495 2.00574 14.1489 2.92705L15.9364 8.42849C16.0703 8.84051 16.4542 9.11947 16.8875 9.11947H22.672C23.6407 9.11947 24.0435 10.3591 23.2598 10.9285L18.58 14.3286C18.2295 14.5832 18.0829 15.0346 18.2167 15.4466L20.0043 20.948C20.3036 21.8693 19.2491 22.6355 18.4654 22.0661L13.7856 18.666C13.4351 18.4114 12.9605 18.4114 12.61 18.666L7.93023 22.0661C7.14652 22.6355 6.09204 21.8693 6.39139 20.948L8.17892 15.4466C8.31279 15.0346 8.16613 14.5832 7.81565 14.3286L3.13585 10.9285C2.35213 10.3591 2.75491 9.11947 3.72363 9.11947H9.50818C9.94141 9.11947 10.3254 8.84051 10.4592 8.42849L12.2468 2.92705Z" fill="white"/>
<path d="M41.9419 2.92705C42.2412 2.00574 43.5447 2.00574 43.844 2.92705L45.6315 8.42849C45.7654 8.84051 46.1494 9.11947 46.5826 9.11947H52.3671C53.3359 9.11947 53.7386 10.3591 52.9549 10.9285L48.2751 14.3286C47.9246 14.5832 47.778 15.0346 47.9119 15.4466L49.6994 20.948C49.9987 21.8693 48.9443 22.6355 48.1605 22.0661L43.4807 18.666C43.1302 18.4114 42.6557 18.4114 42.3052 18.666L37.6254 22.0661C36.8417 22.6355 35.7872 21.8693 36.0865 20.948L37.874 15.4466C38.0079 15.0346 37.8613 14.5832 37.5108 14.3286L32.831 10.9285C32.0473 10.3591 32.45 9.11947 33.4188 9.11947H39.2033C39.6365 9.11947 40.0205 8.84051 40.1544 8.42849L41.9419 2.92705Z" fill="white"/>
<path d="M71.637 2.92705C71.9363 2.00574 73.2397 2.00574 73.5391 2.92705L75.3266 8.42849C75.4605 8.84051 75.8444 9.11947 76.2777 9.11947H82.0622C83.0309 9.11947 83.4337 10.3591 82.65 10.9285L77.9702 14.3286C77.6197 14.5832 77.473 15.0346 77.6069 15.4466L79.3944 20.948C79.6938 21.8693 78.6393 22.6355 77.8556 22.0661L73.1758 18.666C72.8253 18.4114 72.3507 18.4114 72.0002 18.666L67.3204 22.0661C66.5367 22.6355 65.4822 21.8693 65.7816 20.948L67.5691 15.4466C67.703 15.0346 67.5563 14.5832 67.2058 14.3286L62.526 10.9285C61.7423 10.3591 62.1451 9.11947 63.1138 9.11947H68.8984C69.3316 9.11947 69.7156 8.84051 69.8494 8.42849L71.637 2.92705Z" fill="white"/>
<path d="M101.332 2.92705C101.631 2.00574 102.935 2.00574 103.234 2.92705L105.022 8.42849C105.156 8.84051 105.54 9.11947 105.973 9.11947H111.757C112.726 9.11947 113.129 10.3591 112.345 10.9285L107.665 14.3286C107.315 14.5832 107.168 15.0346 107.302 15.4466L109.09 20.948C109.389 21.8693 108.334 22.6355 107.551 22.0661L102.871 18.666C102.52 18.4114 102.046 18.4114 101.695 18.666L97.0155 22.0661C96.2318 22.6355 95.1773 21.8693 95.4767 20.948L97.2642 15.4466C97.3981 15.0346 97.2514 14.5832 96.9009 14.3286L92.2211 10.9285C91.4374 10.3591 91.8402 9.11947 92.8089 9.11947H98.5935C99.0267 9.11947 99.4107 8.84051 99.5445 8.42849L101.332 2.92705Z" fill="white"/>
<path d="M131.247 2.92705C131.546 2.00574 132.85 2.00574 133.149 2.92705L134.936 8.42849C135.07 8.84051 135.454 9.11947 135.887 9.11947H141.672C142.641 9.11947 143.044 10.3591 142.26 10.9285L137.58 14.3286C137.23 14.5832 137.083 15.0346 137.217 15.4466L139.004 20.948C139.304 21.8693 138.249 22.6355 137.465 22.0661L132.786 18.666C132.435 18.4114 131.961 18.4114 131.61 18.666L126.93 22.0661C126.147 22.6355 125.092 21.8693 125.391 20.948L127.179 15.4466C127.313 15.0346 127.166 14.5832 126.816 14.3286L122.136 10.9285C121.352 10.3591 121.755 9.11947 122.724 9.11947H128.508C128.941 9.11947 129.325 8.84051 129.459 8.42849L131.247 2.92705Z" fill="white"/>
</svg>
