<svg width="51" height="54" viewBox="0 0 51 54" fill="none" xmlns="http://www.w3.org/2000/svg">
<g clip-path="url(#clip0_24_392)">
<path d="M10.3861 3.25439C10.3861 2.4958 10.3614 1.76345 10.3943 1.03292C10.4181 0.492494 10.7562 0.162985 11.2854 0.0425877C11.8018 -0.0750939 12.214 0.124965 12.4772 0.547713C12.6043 0.751393 12.6381 1.03383 12.6472 1.28277C12.6701 1.92278 12.6545 2.56459 12.6545 3.24353C17.8203 3.24353 22.9412 3.24353 28.1471 3.24353C28.1471 2.62525 28.1453 1.98886 28.1471 1.35338C28.1499 0.534135 28.594 0.00547271 29.2813 4.12497e-05C29.9613 -0.00539021 30.4348 0.525988 30.4521 1.34071C30.4649 1.96351 30.4549 2.58632 30.4549 3.28155C30.9 3.28155 31.303 3.27883 31.7052 3.28155C33.0432 3.2906 34.3977 3.1702 35.7156 3.33858C38.8807 3.74232 40.8101 6.04888 40.8146 9.27788C40.8238 15.4082 40.8174 21.5385 40.8174 27.6688C40.8174 27.906 40.8174 28.1422 40.8174 28.4165C42.3254 28.7325 43.7393 29.2222 45.007 30.0378C49.1911 32.73 51.2466 36.5664 50.9779 41.4982C50.6662 47.223 46.1741 52.0189 40.4829 52.8852C34.7304 53.7615 29.2795 50.824 26.969 45.5799C26.8155 45.2323 26.6436 45.1364 26.279 45.1373C19.4764 45.1481 12.6728 45.1463 5.8702 45.1454C2.56988 45.1445 0.167074 42.8724 0.0153561 39.6108C0.00895832 39.4822 0.0071304 39.3528 0.0071304 39.2242C0.0071304 29.2276 0.0135281 19.231 0.00164663 9.23443C-0.00109526 6.98942 0.890018 5.24774 2.82945 4.0682C3.70045 3.53864 4.6656 3.28879 5.68832 3.28245C7.06383 3.27431 8.43934 3.28064 9.81486 3.27883C9.97571 3.28064 10.1384 3.26616 10.3861 3.25439ZM38.4968 13.9806C26.4133 13.9806 14.3838 13.9806 2.33682 13.9806C2.32677 14.1716 2.31306 14.3174 2.31306 14.4631C2.31214 22.728 2.30666 30.9928 2.3158 39.2577C2.31854 41.4946 3.71599 42.8651 5.97256 42.8678C12.5138 42.8742 19.0559 42.8705 25.5972 42.8687C25.769 42.8687 25.9417 42.8452 26.1117 42.8334C25.5377 38.9934 26.4115 35.5942 28.8865 32.6685C31.3734 29.7282 34.6298 28.3016 38.4959 28.1984C38.4968 23.4377 38.4968 18.7295 38.4968 13.9806ZM38.5297 30.4932C33.099 30.4189 28.3902 34.9288 28.2358 40.1992C28.0703 45.8289 32.4144 50.6303 38.2043 50.7697C43.9888 50.9091 48.6281 46.4236 48.7012 40.7387C48.7734 35.1135 44.2648 30.5719 38.5297 30.4932ZM38.5014 11.6433C38.5014 10.6086 38.59 9.59109 38.4822 8.59623C38.2857 6.78031 36.87 5.59354 35.032 5.58358C33.6757 5.57634 32.3184 5.58086 30.9621 5.58358C30.8031 5.58358 30.645 5.60531 30.4667 5.61889C30.4667 6.29963 30.4768 6.92515 30.464 7.54977C30.4476 8.32918 29.9851 8.84065 29.3133 8.84879C28.6151 8.85785 28.1553 8.33552 28.1508 7.52352C28.1471 6.88623 28.1499 6.24984 28.1499 5.62251C22.954 5.62251 17.8367 5.62251 12.7322 5.62251C12.7057 5.69764 12.6838 5.73113 12.6838 5.76463C12.6783 6.35304 12.681 6.94235 12.6701 7.53076C12.6545 8.35453 12.1976 8.86056 11.4993 8.84336C10.822 8.82616 10.3989 8.33461 10.3879 7.53076C10.3788 6.89347 10.3861 6.25527 10.3861 5.58358C8.72816 5.58358 7.14974 5.5691 5.57225 5.58811C4.07243 5.60621 2.60918 6.7441 2.41908 8.2115C2.27467 9.32857 2.39074 10.4782 2.39074 11.6415C14.392 11.6433 26.4106 11.6433 38.5014 11.6433Z" fill="#E99600"/>
<path d="M19.2965 23.6043C22.1581 23.6043 25.0197 23.6034 27.8813 23.6052C28.7167 23.6061 29.2422 24.0361 29.2541 24.7196C29.266 25.4058 28.7395 25.8883 27.9206 25.8892C22.1599 25.8955 16.4001 25.8946 10.6394 25.8901C9.96218 25.8892 9.54541 25.6239 9.36353 25.107C9.19902 24.6408 9.29316 24.1945 9.68708 23.9184C9.95213 23.7329 10.3278 23.6206 10.655 23.6179C13.5358 23.5953 16.4166 23.6043 19.2965 23.6043Z" fill="#E99600"/>
<path d="M15.679 33.2117C14.0074 33.2117 12.3367 33.2135 10.665 33.2108C9.83423 33.2099 9.31053 32.7763 9.29956 32.091C9.28859 31.4012 9.81138 30.9223 10.6266 30.9205C14.043 30.9142 17.4603 30.9133 20.8767 30.9214C21.5942 30.9232 22.0676 31.3188 22.1389 31.9163C22.2102 32.5137 21.8748 33.0315 21.3017 33.1746C21.1253 33.218 20.9334 33.2099 20.7488 33.2099C19.0588 33.2126 17.3689 33.2117 15.679 33.2117Z" fill="#E99600"/>
<path d="M37.0136 42.9413C39.1925 40.8827 41.354 38.836 43.5238 36.7974C43.7212 36.6118 43.9488 36.4271 44.1983 36.3312C44.6854 36.1438 45.2439 36.3601 45.5181 36.7793C45.8041 37.2165 45.7365 37.8248 45.3097 38.2385C44.2604 39.2542 43.1957 40.2554 42.1346 41.2602C40.7517 42.5701 39.3662 43.8773 37.9815 45.1863C37.244 45.8833 36.6983 45.8806 35.9717 45.1627C34.63 43.8374 33.2865 42.5131 31.9539 41.1787C31.5024 40.727 31.4193 40.25 31.6798 39.7783C31.9421 39.304 32.3725 39.0777 32.8889 39.208C33.1905 39.2841 33.4839 39.5004 33.7161 39.7213C34.8128 40.7669 35.8867 41.836 37.0136 42.9413Z" fill="#E99600"/>
</g>
<defs>
<clipPath id="clip0_24_392">
<rect width="51" height="53.04" fill="white"/>
</clipPath>
</defs>
</svg>
