<svg width="53" height="53" viewBox="0 0 53 53" fill="none" xmlns="http://www.w3.org/2000/svg">
<g clip-path="url(#clip0_24_364)">
<path d="M-3.8147e-06 26.5945C1.20168 29.2334 2.41305 31.8667 3.59952 34.5125C4.14298 35.7235 4.88141 36.7865 5.82174 37.7195C7.42445 39.3106 9.01748 40.9127 10.6174 42.5066C10.7502 42.6393 10.9106 42.7457 11.0862 42.8881C10.5455 43.5433 10.5676 44.2483 10.5718 44.956C10.5815 46.9563 10.6008 48.9565 10.5649 50.9554C10.5441 52.1359 11.3697 53.022 12.6239 52.9998C15.727 52.9445 18.8329 52.9832 21.9373 52.9819C23.1044 52.9819 23.8512 52.3142 23.865 51.1586C23.894 48.8487 23.8871 46.5388 23.8678 44.2289C23.8595 43.2516 23.3713 42.66 22.4144 42.4291C22.0659 42.3448 22.0977 42.1306 22.1019 41.8914C22.1199 40.4773 22.1102 39.0645 21.629 37.7071C20.8158 35.4138 19.4579 33.6361 17.0932 32.7307C15.4739 32.11 13.9846 31.2101 12.7221 30.0269C11.3323 28.7247 9.53328 28.0985 7.3318 29.2293C7.26681 29.1007 7.19213 28.9749 7.13543 28.8422C6.60442 27.6105 6.07757 26.3775 5.54794 25.1458C4.97544 23.8133 3.9881 23.0931 2.77397 23.1193C1.49484 23.147 0.578022 23.8769 0.0636063 25.2758C0.0525436 25.3062 0.0207386 25.3283 -0.00138664 25.3532C-3.8147e-06 25.7665 -3.8147e-06 26.1812 -3.8147e-06 26.5945ZM20.2613 42.3227C20.1825 42.3379 20.1327 42.3559 20.0829 42.3559C17.8234 42.3586 15.5638 42.3669 13.3043 42.349C13.1121 42.3476 12.8797 42.2163 12.7373 42.0739C10.7654 40.1193 8.78378 38.1743 6.85749 36.1755C6.29329 35.5894 5.78855 34.8941 5.43869 34.1614C4.22871 31.6331 3.09617 29.0689 1.94565 26.513C1.85161 26.3029 1.79077 26.0471 1.81013 25.8204C1.85023 25.3518 2.24019 24.9827 2.68685 24.9371C3.21509 24.8846 3.58984 25.121 3.79727 25.6006C4.43199 27.0673 5.01554 28.5602 5.70558 30.0006C6.14809 30.9254 6.62102 31.8861 7.29446 32.6395C8.78654 34.3079 10.4017 35.8686 12.0003 37.4403C12.1925 37.6297 12.6101 37.732 12.8784 37.6725C13.6265 37.5053 13.7578 36.7008 13.1618 36.0981C11.8398 34.7627 10.4999 33.444 9.18204 32.1031C8.81558 31.7299 8.5003 31.3055 8.15874 30.9019C9.16544 30.1789 10.2344 30.2411 11.1443 31.0539C12.8203 32.5469 14.6982 33.7108 16.7766 34.5526C17.6298 34.8982 18.3088 35.4567 18.8564 36.1948C20.2129 38.0237 20.4494 40.1041 20.2613 42.3227ZM12.4206 44.2096C15.6648 44.2096 18.8467 44.2096 22.0231 44.2096C22.0231 46.5596 22.0231 48.8736 22.0231 51.1821C18.7997 51.1821 15.6178 51.1821 12.4206 51.1821C12.4206 48.8445 12.4206 46.5416 12.4206 44.2096Z" fill="#E99600"/>
<path d="M26.1951 -8.25115e-05C24.5633 0.725642 22.9357 1.45828 21.2998 2.17709C18.6075 3.36037 15.9151 4.54641 13.213 5.70342C12.5866 5.97159 12.3308 6.3697 12.3335 7.04981C12.3515 11.465 12.328 15.8802 12.3473 20.2953C12.3626 23.7512 13.762 26.5213 16.5774 28.5548C19.498 30.6642 22.4199 32.7709 25.3433 34.8762C26.1273 35.4415 26.8146 35.4816 27.5337 34.9646C30.5994 32.7612 33.6818 30.5785 36.7143 28.3308C39.3058 26.4108 40.6181 23.765 40.6554 20.5593C40.7093 16.0073 40.6665 11.4525 40.6734 6.90052C40.6748 6.32685 40.4245 5.98956 39.8948 5.7601C35.6648 3.92298 31.443 2.06789 27.2198 0.215561C27.0801 0.154739 26.9515 0.0717988 26.8174 -0.00146484C26.6086 -8.25115e-05 26.4025 -8.25115e-05 26.1951 -8.25115e-05ZM14.1672 14.4729C14.1658 14.4729 14.1658 14.4729 14.1644 14.4729C14.1644 12.2142 14.1699 9.95686 14.1575 7.69813C14.1561 7.37881 14.2446 7.21293 14.5488 7.08022C18.4291 5.39378 22.3024 3.69074 26.184 2.00706C26.3596 1.93104 26.6265 1.92689 26.8008 2.00153C30.6962 3.69213 34.5834 5.40069 38.4774 7.09405C38.7582 7.21569 38.8536 7.36498 38.8522 7.66771C38.8425 11.9778 38.8605 16.2879 38.8384 20.5967C38.8245 23.2355 37.7169 25.3685 35.6053 26.9277C32.6958 29.0773 29.7448 31.1715 26.7994 33.2727C26.6666 33.3667 26.3569 33.3819 26.231 33.292C23.2303 31.1494 20.2157 29.022 17.2633 26.8144C15.225 25.2897 14.199 23.1802 14.1685 20.6257C14.1464 18.5757 14.1672 16.5243 14.1672 14.4729Z" fill="#E99600"/>
<path d="M41.8903 42.8287C42.0521 42.7278 42.2415 42.6531 42.3729 42.5218C44.0019 40.9058 45.6627 39.3203 47.2266 37.6435C47.9803 36.8349 48.6883 35.9212 49.1751 34.9369C50.4321 32.3948 51.5701 29.7919 52.7262 27.2C53.4895 25.4887 52.5921 23.6834 50.8013 23.2383C49.4765 22.9093 48.1324 23.6184 47.535 24.9786C46.9764 26.2545 46.4343 27.5373 45.8839 28.8173C45.8245 28.957 45.7595 29.0938 45.6806 29.2708C44.9159 28.8367 44.1236 28.6003 43.2565 28.6418C42.3632 28.6833 41.5515 28.9556 40.8891 29.5445C39.209 31.036 37.3076 32.1349 35.2568 33.0459C32.935 34.0785 31.7458 36.0953 31.1954 38.4674C30.9424 39.5595 30.9797 40.7206 30.9147 41.8527C30.8953 42.1776 30.8801 42.3711 30.4763 42.4499C29.6798 42.6033 29.1502 43.2959 29.1419 44.193C29.1198 46.5209 29.1129 48.8487 29.1447 51.1766C29.1599 52.3087 29.9121 52.9791 31.0392 52.9805C34.1962 52.9819 37.3546 52.9819 40.5116 52.9805C41.6787 52.9805 42.4241 52.2534 42.4296 51.0853C42.4393 48.8266 42.4517 46.5665 42.4171 44.3078C42.4102 43.8488 42.2042 43.3927 42.0908 42.9365C42.0244 42.9005 41.958 42.8646 41.8903 42.8287ZM44.8717 30.9157C44.4527 31.3899 44.0752 31.8599 43.6548 32.287C42.384 33.5767 41.0924 34.8457 39.8188 36.1327C39.2477 36.7105 39.3804 37.4735 40.0788 37.714C40.5185 37.8647 40.8393 37.6505 41.1352 37.3546C42.4503 36.0359 43.7723 34.7241 45.0833 33.4012C46.0526 32.4225 46.7883 31.289 47.3234 30.02C47.9374 28.563 48.5625 27.1102 49.1944 25.6601C49.4682 25.0325 50.0158 24.7823 50.5662 25.0063C51.1664 25.2509 51.3821 25.8398 51.0806 26.5061C49.9398 29.0288 48.8238 31.564 47.6221 34.0564C47.2405 34.8485 46.7026 35.606 46.0941 36.2405C44.1969 38.2186 42.236 40.1373 40.282 42.0601C40.1106 42.2287 39.8105 42.3462 39.5685 42.349C37.4472 42.3711 35.3246 42.3628 33.2033 42.3601C33.0539 42.3601 32.9046 42.3407 32.6114 42.32C32.7276 41.0911 32.7069 39.8663 32.9834 38.7162C33.4107 36.9441 34.2985 35.389 36.0851 34.6314C38.2465 33.7136 40.224 32.5317 41.9788 30.9669C42.8002 30.2342 43.8622 30.2246 44.8717 30.9157ZM30.9686 44.2069C34.2031 44.2069 37.385 44.2069 40.5738 44.2069C40.5738 46.5527 40.5738 48.8667 40.5738 51.1849C37.3518 51.1849 34.1713 51.1849 30.9686 51.1849C30.9686 48.8501 30.9686 46.5471 30.9686 44.2069Z" fill="#E99600"/>
<path d="M18.9767 46.7821C18.8398 46.7821 18.7015 46.7738 18.566 46.7835C18.0363 46.8222 17.681 47.1733 17.6713 47.6599C17.6616 48.1492 17.9921 48.5156 18.5273 48.5626C18.8329 48.5902 19.1454 48.5902 19.451 48.5639C19.9958 48.5183 20.3208 48.17 20.3166 47.6723C20.3125 47.1623 19.9502 46.8111 19.3888 46.7807C19.2519 46.7766 19.1136 46.7821 18.9767 46.7821Z" fill="#E99600"/>
<path d="M15.933 14.9499C15.933 17.0013 15.8708 19.054 15.9524 21.1013C16.0243 22.9038 16.8913 24.376 18.3295 25.4446C20.8186 27.2927 23.3533 29.0815 25.866 30.9006C26.3002 31.2158 26.7053 31.2199 27.1437 30.902C29.6411 29.0911 32.1606 27.3107 34.6401 25.4777C36.3188 24.2378 37.1167 22.5085 37.1264 20.4377C37.1444 16.7137 37.1278 12.9897 37.1361 9.26574C37.1375 8.68101 36.9204 8.30916 36.3631 8.06864C33.2517 6.72777 30.1486 5.36756 27.0483 3.99905C26.6694 3.83179 26.3417 3.83041 25.9641 3.9949C22.8486 5.36618 19.7303 6.73054 16.6065 8.08246C16.0686 8.31469 15.875 8.70174 15.8777 9.26021C15.8874 11.1568 15.8819 13.0533 15.8819 14.9499C15.8985 14.9499 15.9151 14.9499 15.933 14.9499ZM35.3177 15.4296C35.3177 17.1022 35.3121 18.7748 35.319 20.4474C35.326 21.9901 34.7023 23.2218 33.4674 24.1244C31.2563 25.7418 29.0299 27.3383 26.7952 28.9253C26.6639 29.0193 26.3541 29.0262 26.2255 28.9349C23.9632 27.3287 21.705 25.7155 19.4717 24.0691C18.2908 23.1983 17.6962 21.9887 17.6948 20.511C17.6906 17.0109 17.6975 13.5109 17.6865 10.0108C17.6851 9.69702 17.7612 9.52838 18.0709 9.39429C20.7564 8.23728 23.4308 7.05262 26.1176 5.89976C26.3361 5.80576 26.6625 5.80714 26.881 5.89976C29.5678 7.05262 32.2395 8.2359 34.9235 9.39291C35.2236 9.52285 35.326 9.67214 35.3232 9.99699C35.3094 11.8092 35.3177 13.6201 35.3177 15.4296Z" fill="#E99600"/>
<path d="M34.015 48.5904C34.1865 48.5807 34.358 48.5835 34.5281 48.5613C35.0328 48.4936 35.3481 48.1425 35.3412 47.6697C35.3343 47.2011 34.9996 46.8362 34.5059 46.7906C34.2335 46.7657 33.9569 46.7754 33.6831 46.7837C33.0788 46.8003 32.7027 47.1403 32.6944 47.6684C32.6861 48.2019 33.0401 48.5392 33.6541 48.5793C33.773 48.5876 33.8933 48.5807 34.0136 48.5807C34.015 48.5835 34.015 48.5862 34.015 48.5904Z" fill="#E99600"/>
<path d="M28.4934 20.7875C27.9582 19.9872 27.4327 19.202 26.91 18.4168C25.2866 15.9826 23.6603 13.5496 22.0397 11.1126C21.8129 10.7712 21.5004 10.4919 21.109 10.608C20.8228 10.6937 20.5158 10.9661 20.3872 11.237C20.289 11.443 20.3789 11.8273 20.5213 12.0429C22.8265 15.5347 25.1497 19.0154 27.477 22.4933C27.8503 23.0518 28.3468 23.1292 28.8944 22.7256C30.0311 21.8865 31.1609 21.0377 32.2837 20.1821C32.7539 19.8241 32.8355 19.3402 32.534 18.9186C32.2187 18.4749 31.7098 18.3975 31.2162 18.7569C30.3132 19.4135 29.424 20.0922 28.4934 20.7875Z" fill="#E99600"/>
</g>
<defs>
<clipPath id="clip0_24_364">
<rect width="53" height="53" fill="white" transform="matrix(-1 0 0 1 53 0)"/>
</clipPath>
</defs>
</svg>
