<svg width="50" height="61" viewBox="0 0 50 61" fill="none" xmlns="http://www.w3.org/2000/svg">
<g clip-path="url(#clip0_24_480)">
<path d="M49.9231 11.5131C49.6943 8.57937 49.4564 5.54483 49.1958 2.55852C49.1233 1.72534 48.7403 1.06318 48.1195 0.692628C47.4759 0.308925 46.6489 0.282614 45.7923 0.615887C45.6496 0.670702 45.5068 0.727709 45.3664 0.786909C45.2009 0.852687 45.0355 0.920657 44.8678 0.984242C39.8352 2.90714 35.2648 3.36978 30.9029 2.40065C29.0222 1.98406 27.4904 1.57843 26.3099 0.504065C25.5485 -0.1866 24.5402 -0.171252 23.6112 0.547917L23.5545 0.591769C23.1988 0.868035 22.8634 1.12676 22.528 1.28024C20.0287 2.42258 17.3005 2.94661 14.1849 2.87864C10.9854 2.80848 7.76325 2.08492 4.33716 0.664124C3.20193 0.192718 2.42018 0.396629 1.96473 0.648776C1.51155 0.900924 0.940531 1.44907 0.793246 2.6243C0.609706 4.07141 0.405772 5.78601 0.283412 7.52254C-0.249082 15.1352 -0.0202227 22.0177 0.983584 28.5604C1.89902 34.5287 3.39227 39.6089 5.54717 44.0927C8.74666 50.7494 13.0633 55.4459 18.7417 58.4498C20.142 59.1909 21.6171 59.7938 23.0469 60.3793C23.4457 60.5415 23.8446 60.706 24.2411 60.8704C24.4631 60.9647 24.6943 60.9976 24.9163 60.9976C25.2653 60.9976 25.5961 60.9121 25.8499 60.8309C26.1558 60.7345 26.4232 60.6139 26.6838 60.4955C26.865 60.4122 27.0372 60.3354 27.2004 60.2784C31.56 58.7239 35.3555 56.2594 38.4757 52.953C42.1601 49.0502 44.8996 44.1673 46.8483 38.0258C48.8808 31.6235 49.8891 24.5743 50.0047 15.907C50.0002 15.9092 50.0115 12.6466 49.9231 11.5131ZM24.5628 56.6935C18.1163 54.5163 13.3034 50.2736 9.84564 43.7222C7.63635 39.5343 6.10005 34.7172 5.15063 28.9989C3.92476 21.6187 3.73442 13.7846 4.56602 5.06246C4.94216 5.15893 5.31378 5.2554 5.68086 5.35188C7.28967 5.77286 8.95059 6.20699 10.6274 6.48106C15.8164 7.32521 20.6519 6.65647 25.0024 4.49238C30.1484 7.02482 35.7883 7.49623 42.2394 5.93291C43.2522 5.68734 44.2153 5.38258 45.2327 5.05807C45.2938 5.03834 45.3573 5.01861 45.4185 4.99887C45.4955 5.7904 45.5771 6.60823 45.636 7.40853C46.284 16.203 45.892 23.9845 44.4373 31.1959C43.3315 36.684 41.6616 41.2599 39.3367 45.1824C35.9378 50.9161 31.4014 54.6785 25.467 56.6848C25.2086 56.7747 24.8098 56.7768 24.5628 56.6935Z" fill="black"/>
<path d="M31.7026 28.1878C31.7026 29.6766 31.7026 30.9702 31.7026 32.3121C27.2251 32.3121 22.8066 32.3121 18.2997 32.3121C18.2997 30.979 18.2997 29.6656 18.2997 28.1966C16.9718 28.9969 15.789 29.727 14.5858 30.4243C14.2663 30.6084 13.897 30.7663 13.5344 30.8124C12.7776 30.9066 12.1612 30.6216 11.8123 29.9375C11.4679 29.2622 11.5585 28.5978 12.091 28.0672C14.6288 25.537 17.178 23.0155 19.7476 20.516C20.5837 19.7025 21.7325 19.7376 22.7953 19.7222C24.6624 19.6959 26.5363 19.7069 28.3966 19.8494C29.0809 19.902 29.8876 20.2134 30.3725 20.6716C32.8968 23.0528 35.3394 25.5107 37.798 27.9576C38.5276 28.6834 38.5593 29.5626 37.9521 30.2796C37.3878 30.9439 36.4792 31.0689 35.6136 30.5602C34.356 29.8103 33.112 29.0407 31.7026 28.1878Z" fill="black"/>
<path d="M20.3798 14.278C20.3707 11.7368 22.3987 9.75685 25.0045 9.76124C27.5854 9.76343 29.6044 11.7148 29.6202 14.2188C29.6338 16.6986 27.5945 18.696 25.0317 18.707C22.4576 18.718 20.3888 16.749 20.3798 14.278Z" fill="black"/>
<path d="M17.8465 35.2017C18.8593 36.5216 19.8133 37.7626 20.808 39.0584C19.9923 39.5803 19.2196 40.0714 18.3857 40.6042C19.3873 42.0974 20.373 43.5664 21.3586 45.0376C21.5286 45.2898 21.7099 45.5375 21.8571 45.8028C22.299 46.5987 22.0543 47.5306 21.2952 48.0042C20.5361 48.4778 19.5051 48.3397 18.9907 47.5964C17.4726 45.3994 15.9612 43.1936 14.5405 40.9375C14.2935 40.5472 14.2776 39.7447 14.5337 39.3829C15.542 37.949 16.7022 36.6181 17.8465 35.2017Z" fill="black"/>
<path d="M31.6188 40.6044C30.7985 40.0826 30.0417 39.6002 29.1942 39.0631C30.1776 37.7782 31.1361 36.5284 32.1513 35.2041C33.2888 36.6074 34.4081 37.9361 35.4618 39.3108C35.8606 39.8305 35.8153 40.4707 35.4482 41.021C34.0093 43.1851 32.5637 45.3448 31.0908 47.487C30.5243 48.3114 29.4956 48.5022 28.7003 48C27.88 47.4826 27.6806 46.4981 28.2584 45.6189C29.3551 43.9591 30.4722 42.3125 31.6188 40.6044Z" fill="black"/>
</g>
<defs>
<clipPath id="clip0_24_480">
<rect width="50" height="61" fill="white"/>
</clipPath>
</defs>
</svg>
