<svg width="59" height="59" viewBox="0 0 59 59" fill="none" xmlns="http://www.w3.org/2000/svg">
<g clip-path="url(#clip0_24_470)">
<path d="M8.76467 11.3425C14.0165 12.4627 17.923 15.4535 20.7295 19.9456C23.4342 24.2761 24.7773 29.0384 25.208 34.0963C25.4673 37.1403 25.8332 40.1704 26.7965 43.0943C27.8848 46.3993 29.9087 49.09 32.3378 51.515C33.7735 52.9469 35.3528 54.2079 37.02 55.3627C38.0435 56.0718 38.3098 57.0856 37.7564 58.051C37.2354 58.9564 36.1841 59.2682 35.1189 58.7578C34.5747 58.4968 34.0722 58.4806 33.4794 58.5522C25.6178 59.5038 18.4139 57.7878 12.0135 53.0762C6.26379 48.8428 2.5171 43.2306 0.845209 36.3019C-0.65069 30.0984 -0.134304 24.0174 2.29479 18.1095C2.43836 17.7608 2.42447 17.4813 2.31564 17.1487C1.0073 13.1578 0.604383 9.06529 0.889206 4.88499C0.930887 4.27296 1.14161 4.05817 1.75294 3.98426C8.27376 3.2198 14.3477 4.58013 20.0233 7.79273C22.3991 9.13689 24.6152 10.6982 26.3496 12.8622C28.3063 15.3034 29.3182 18.1234 29.6864 21.1789C30.0986 24.5901 29.7096 27.9482 28.7648 31.244C28.7231 31.3895 28.6467 31.5234 28.5425 31.759C27.9312 29.4033 27.2226 27.1861 26.2778 25.0521C24.1289 20.2089 21.0954 16.1025 16.39 13.4188C14.2736 12.2109 11.9996 11.4488 9.57514 11.1485C8.82719 10.9245 8.07693 11.0423 7.32203 11.1601C7.80137 11.2201 8.28302 11.2802 8.76467 11.3425ZM30.3857 55.1641C29.2302 53.776 28.2808 52.4596 27.4935 51.0323C24.8722 46.27 23.719 41.0919 23.1957 35.7499C22.9595 33.348 22.1097 32.3341 19.75 31.8768C14.7089 30.8976 10.2305 28.8513 6.74544 24.9643C6.24526 24.4054 5.80529 23.7934 5.33985 23.2044C5.17313 22.9942 4.96009 22.8372 4.69611 22.8487C4.34181 22.8649 4.45991 23.2044 4.40897 23.3961C3.61007 26.5233 3.40167 29.7151 3.91342 32.8769C5.48574 42.6047 10.8418 49.4664 19.9561 53.3303C23.2235 54.716 26.6668 55.2426 30.3857 55.1641Z" fill="black"/>
<path d="M31.0897 33.8743C30.5015 31.5093 30.2352 29.149 30.5362 26.7285C30.9554 23.3543 32.2267 20.3657 34.5793 17.9107C36.1146 16.3078 37.9509 15.0491 39.8312 13.8643C41.6883 12.6934 43.7145 11.8319 45.6017 10.721C47.5515 9.57314 48.5542 7.8479 48.758 5.62611C48.7672 5.53603 48.795 5.44596 48.8529 5.1665C49.4758 6.15269 49.668 7.11577 49.9366 8.02805C51.1361 12.1044 51.678 16.257 51.2287 20.5043C50.8351 24.2365 49.4781 27.5623 46.8012 30.246C44.6894 32.3639 42.0889 33.6873 39.2199 34.5095C37.504 35.0014 35.7742 35.3986 33.9842 35.5257C33.484 35.5603 33.3567 35.4494 33.4123 34.946C33.6369 32.932 34.1371 30.9874 34.804 29.0797C35.7511 26.3659 37.0941 23.8508 38.8702 21.6036C40.1438 19.9916 41.6304 18.555 43.3903 17.4372C43.5663 17.3263 43.9137 17.2409 43.7701 16.9684C43.601 16.645 43.3625 16.9684 43.1796 17.0446C39.0624 18.7675 36.2535 21.8669 34.1486 25.6754C32.9491 27.8487 32.0877 30.1582 31.5204 32.581C31.4254 33.0106 31.2749 33.4401 31.0897 33.8743Z" fill="black"/>
<path d="M53.3267 12.0005C54.0469 13.1553 54.7091 14.1391 55.2904 15.1692C56.8326 17.906 57.8653 20.8184 58.4535 23.9178C59.2223 27.9734 59.1899 32.0082 58.2775 36.006C57.3559 40.0362 55.6446 43.7431 53.1276 47.0573C51.3492 49.3992 49.3091 51.4801 46.924 53.2007C45.1734 54.464 43.3232 55.5772 41.2993 56.3787C41.1025 56.4572 40.8848 56.635 40.857 56.2747C40.7737 55.1892 39.9748 54.7089 39.1782 54.2146C38.942 54.0691 38.6109 53.9167 38.6479 53.6187C38.6803 53.3693 39.0346 53.3116 39.2639 53.2192C42.4039 51.9466 45.1988 50.1175 47.5886 47.7455C49.4642 45.884 51.0412 43.78 52.2708 41.3989C53.2804 39.445 54.1302 37.4472 54.6026 35.3201C55.2325 32.4863 55.4895 29.6155 55.1422 26.6985C54.8874 24.5576 54.3548 22.4974 53.6764 20.4627C53.6277 20.3172 53.5397 20.1602 53.556 20.0193C53.8315 17.4557 53.5212 14.9175 53.2457 12.3769C53.2387 12.3284 53.2642 12.2776 53.3267 12.0005Z" fill="black"/>
<path d="M14.9636 3.84564C16.353 3.03729 17.6243 2.40678 18.9535 1.91947C22.7326 0.536042 26.639 -0.149897 30.6682 0.0302484C33.9889 0.18037 37.2145 0.813189 40.3152 2.05111C42.3043 2.8456 44.1776 3.84333 45.9723 5.00273C46.447 5.3099 46.5929 5.6471 46.4354 6.23141C46.1992 7.10674 45.7963 7.82732 45.1016 8.41395C44.8029 8.66569 44.6431 8.64952 44.3166 8.42781C41.6814 6.6379 38.8679 5.27064 35.7302 4.52927C33.234 3.93802 30.7354 3.64009 28.1882 3.74171C25.5044 3.84795 22.9178 4.4392 20.41 5.38843C20.1622 5.48312 19.9214 5.60552 19.6667 5.48774C18.2148 4.81104 16.6702 4.39762 14.9636 3.84564Z" fill="black"/>
<path d="M8.76468 11.3422C8.28302 11.2822 7.80369 11.2198 7.32204 11.1598C8.07693 11.042 8.8272 10.9242 9.57515 11.1482C9.31811 11.2706 8.96614 10.9981 8.76468 11.3422Z" fill="black"/>
</g>
<defs>
<clipPath id="clip0_24_470">
<rect width="59" height="59" fill="white"/>
</clipPath>
</defs>
</svg>
