<svg width="19" height="15" viewBox="0 0 19 15" fill="none" xmlns="http://www.w3.org/2000/svg">
<path d="M2.09994 0L16.9001 0C18.2963 0 19 0.707636 19 2.1469V12.2457C19 13.673 18.2963 14.3926 16.9001 14.3926H2.09994C0.703704 14.3926 0 13.673 0 12.2457L0 2.1469C0 0.707636 0.703704 0 2.09994 0ZM9.49441 10.3147L17.0229 3.68211C17.291 3.44223 17.5032 2.89051 17.1681 2.39877C16.8442 1.90702 16.2522 1.89503 15.8613 2.19487L9.49441 6.82449L3.13874 2.19487C2.7478 1.89503 2.15579 1.90702 1.83186 2.39877C1.49677 2.89051 1.70899 3.44223 1.97707 3.68211L9.49441 10.3147Z" fill="white"/>
</svg>
