<svg width="53" height="52" viewBox="0 0 53 52" fill="none" xmlns="http://www.w3.org/2000/svg">
<g clip-path="url(#clip0_24_398)">
<path d="M48.0634 9.8875C44.5608 5.2039 39.489 1.91423 33.7798 0.623232C28.2883 -0.619152 22.7257 0.00561436 17.6966 2.43034C13.1014 4.6449 9.28008 8.22908 6.9341 12.5238L6.61969 13.0985L7.26985 13.1572C7.38508 13.1672 7.4989 13.1772 7.61271 13.1872C7.89724 13.2101 8.16471 13.2329 8.43217 13.2687C8.73662 13.3101 8.96993 13.1986 9.12927 12.9398C9.34979 12.5781 9.53473 12.2893 9.71257 12.0291C11.4169 9.52151 13.558 7.41846 16.0762 5.78149C19.6143 3.48114 23.5622 2.25592 27.8103 2.14154C29.5445 2.09436 31.3015 2.26164 33.0301 2.63907C37.621 3.63984 41.5433 5.84153 44.6845 9.18553C48.2597 12.9899 50.314 17.562 50.7906 22.7731C51.0367 25.4695 50.792 28.1773 50.0636 30.8236C49.1745 34.0518 47.6451 36.9569 45.5196 39.4588C42.9091 42.5326 39.691 44.7672 35.9522 46.1011C35.2708 46.3441 34.548 46.5328 33.8481 46.7158C33.5024 46.8059 33.1453 46.8988 32.7953 46.9989C32.673 47.0332 32.3856 47.1147 32.296 47.3935C32.1907 47.7209 32.0982 48.054 32.0072 48.3742L31.7397 49.3164L32.3984 49.2149C37.5712 48.4186 42.4823 45.8066 46.2253 41.8607C50.3268 37.5373 52.6586 32.0331 52.9687 25.9441C53.2589 20.2097 51.5176 14.5068 48.0634 9.8875Z" fill="#E99600"/>
<path d="M22.4668 24.3285C22.9647 23.8067 23.4712 23.2906 23.8397 22.6629C24.44 21.6422 24.3888 19.8579 22.6759 19.1674C21.1494 18.5512 19.5574 19.0516 18.5858 20.7272C19.0581 21.0088 19.5304 21.289 20.0141 21.5764C20.0667 21.5006 20.1109 21.4377 20.155 21.3762C20.3954 21.0445 20.6586 20.7386 21.0484 20.5756C21.5492 20.3655 22.0855 20.5356 22.3131 20.9816C22.4739 21.2976 22.4767 21.6379 22.3018 21.9295C22.077 22.3012 21.8237 22.6644 21.5293 22.9818C20.7226 23.8496 19.9017 24.7031 19.0595 25.5337C18.7906 25.7982 18.674 26.0627 18.7095 26.4301C18.7351 26.696 18.7152 26.9648 18.7152 27.2322C20.6372 27.2322 22.5265 27.2322 24.413 27.2322C24.413 26.6889 24.413 26.1642 24.413 25.6238C23.3588 25.6238 22.3217 25.6238 21.2276 25.6238C21.6672 25.1634 22.067 24.746 22.4668 24.3285Z" fill="#E99600"/>
<path d="M30.714 22.3398C30.1221 22.3398 29.5616 22.3398 28.9797 22.3398C28.9797 22.8116 28.9797 23.2663 28.9797 23.7209C28.5985 23.7209 28.2385 23.7209 27.8445 23.7209C28.7592 22.1797 29.6584 20.6657 30.5703 19.1288C30.4906 19.1231 30.4422 19.1174 30.3939 19.1174C29.8547 19.1174 29.3155 19.1216 28.7763 19.1131C28.6483 19.1116 28.5828 19.1574 28.5188 19.2632C27.6168 20.7729 26.7106 22.2798 25.8072 23.7895C25.7745 23.8439 25.7318 23.9053 25.7304 23.9639C25.7233 24.4014 25.7275 24.8389 25.7275 25.3121C26.823 25.3121 27.8928 25.3121 28.9883 25.3121C28.9883 25.9655 28.9883 26.6003 28.9883 27.2379C29.5758 27.2379 30.1364 27.2379 30.7254 27.2379C30.7254 26.5917 30.7254 25.9569 30.7254 25.2978C31.0426 25.2978 31.3343 25.2978 31.6259 25.2978C31.6259 24.7703 31.6259 24.2685 31.6259 23.7395C31.3257 23.7395 31.0341 23.7395 30.714 23.7395C30.714 23.2548 30.714 22.7945 30.714 22.3398Z" fill="#E99600"/>
<path d="M40.3226 19.1318C40.3226 19.9996 40.3226 20.8532 40.3226 21.7052C40.8832 21.7052 41.4266 21.7052 41.9943 21.7052C41.9943 21.3607 41.9943 21.029 41.9943 20.6902C42.68 20.6902 43.3401 20.6902 44.0258 20.6902C42.983 22.8833 41.953 25.0507 40.9116 27.2409C41.0041 27.2452 41.0667 27.2509 41.1279 27.2509C41.6486 27.2509 42.1678 27.2452 42.6885 27.2552C42.8336 27.2581 42.9005 27.2052 42.9617 27.0779C43.9661 24.9949 44.9719 22.9119 45.9877 20.8346C46.1072 20.5887 46.1726 20.3499 46.1598 20.0768C46.1456 19.7637 46.157 19.4492 46.157 19.1318C44.1923 19.1318 42.2575 19.1318 40.3226 19.1318Z" fill="#E99600"/>
<path d="M34.1611 28.5647C34.2934 28.5676 34.3503 28.5161 34.403 28.4018C35.9579 24.982 37.5172 21.5651 39.075 18.1467C39.112 18.0667 39.1433 17.9852 39.1874 17.8779C38.7236 17.8779 38.2883 17.8937 37.8543 17.8722C37.6281 17.8608 37.5214 17.9351 37.4275 18.1424C35.9622 21.3835 34.4883 24.6203 33.0159 27.8585C32.9149 28.0801 32.8153 28.3017 32.6986 28.5619C33.2122 28.5619 33.6859 28.5562 34.1611 28.5647Z" fill="#E99600"/>
<path d="M0.135173 21.8455C0.294512 21.3622 0.429665 20.8704 0.621725 20.4001C0.903413 19.7067 1.32168 19.0848 1.9007 18.6215C3.16118 17.6108 4.42167 16.5914 5.74901 15.675C7.1418 14.7128 8.9742 14.9859 10.1166 16.2369C10.6046 16.7715 11.047 17.3506 11.4838 17.931C12.4868 19.262 13.5196 20.573 14.4557 21.9512C15.4288 23.3838 15.1471 25.2424 13.8283 26.3747C12.8382 27.2267 11.7911 28.0131 10.7098 28.8766C10.9289 29.4213 11.1295 30.0303 11.4098 30.5993C12.9776 33.7803 15.0931 36.541 17.7705 38.86C18.1376 39.1774 18.5459 39.449 18.9528 39.7149C19.0296 39.765 19.2188 39.7249 19.307 39.6592C20.2346 38.9743 21.128 38.2395 22.077 37.5876C23.777 36.4209 25.5611 36.6454 26.8457 38.2538C28.257 40.0194 29.6142 41.8323 30.9245 43.6751C31.9175 45.0705 31.6501 46.9619 30.3882 48.1257C29.9429 48.536 29.4592 48.9048 28.9826 49.278C28.1788 49.9085 27.3991 50.579 26.5484 51.138C25.1044 52.0873 23.5082 52.1673 21.8607 51.7899C18.9058 51.1123 16.4048 49.5382 14.0119 47.7625C10.9545 45.4922 8.33115 42.7801 6.13882 39.6606C3.53961 35.9606 1.50947 31.9818 0.482303 27.5384C0.1494 26.0987 -0.0725363 24.6419 0.019937 23.155C0.0270503 23.0507 0.00855566 22.9463 0.00286499 22.8405C0.0483903 22.5088 0.092493 22.1771 0.135173 21.8455ZM2.19377 22.5074C1.98037 24.07 2.18523 25.4325 2.47546 26.7864C3.25508 30.4321 4.81859 33.7446 6.79467 36.8713C9.37254 40.9487 12.6376 44.3642 16.6381 47.0563C18.4563 48.2801 20.3569 49.338 22.5294 49.7927C23.6006 50.0171 24.6534 49.9571 25.5611 49.2923C26.6722 48.4774 27.7534 47.6181 28.8133 46.7375C29.5644 46.1141 29.6185 45.4021 29.0537 44.5915C28.7948 44.2212 28.5145 43.8652 28.2399 43.505C27.2597 42.2168 26.2824 40.9244 25.2936 39.6434C24.6947 38.8671 23.9876 38.7713 23.1852 39.3332C23.0785 39.4075 22.9747 39.489 22.8708 39.5677C21.956 40.2696 21.0455 40.9787 20.1265 41.6736C19.4792 42.1625 18.7991 42.1825 18.1475 41.735C17.698 41.4262 17.247 41.116 16.8188 40.7786C14.8071 39.1859 13.1369 37.2745 11.6787 35.17C10.4196 33.3543 9.30995 31.4614 8.68682 29.3155C8.40371 28.3419 8.58865 27.7629 9.38819 27.1681C10.2845 26.5019 11.1779 25.8299 12.0628 25.1466C13.1312 24.3216 13.2095 23.6654 12.3914 22.576C12.3843 22.566 12.3772 22.5574 12.3701 22.5474C11.232 21.0506 10.0938 19.5523 8.95428 18.0554C8.18888 17.0518 7.44199 16.9545 6.43189 17.728C5.58256 18.3785 4.74746 19.0504 3.8839 19.6809C2.85816 20.4315 2.27629 21.4137 2.19377 22.5074Z" fill="#E99600"/>
</g>
<defs>
<clipPath id="clip0_24_398">
<rect width="53" height="52" fill="white"/>
</clipPath>
</defs>
</svg>
