<svg width="68" height="61" viewBox="0 0 68 61" fill="none" xmlns="http://www.w3.org/2000/svg">
<g clip-path="url(#clip0_24_491)">
<path d="M58.1969 53.4055C58.185 57.1925 55.2189 60.3839 51.3481 60.8775C49.2675 61.1441 47.4036 60.6249 45.5611 59.7651C43.0901 58.6132 40.5929 57.5146 38.0909 56.4254C35.8175 55.4357 33.5346 55.4519 31.2659 56.4694C28.4069 57.751 25.5479 59.0373 22.6793 60.2981C18.1516 62.2913 12.7216 59.8601 11.4765 55.2642C10.9457 53.3012 11.2075 51.3822 12.2264 49.6162C14.0309 46.4874 15.8781 43.3794 17.7421 40.2831C18.8848 38.3872 19.9441 36.4196 21.2986 34.6721C24.1767 30.9569 28.1093 28.8942 32.8633 28.4284C38.4028 27.8861 43.1638 29.5548 47.0846 33.4252C48.5986 34.9224 49.6127 36.7556 50.6768 38.5518C52.7884 42.114 54.9023 45.6739 57.0233 49.2291C57.7851 50.5061 58.2017 51.9477 58.1969 53.4055Z" fill="black"/>
<path d="M33.3322 14.5018C33.3227 16.8241 32.8252 19.012 31.3897 20.9263C29.2258 23.8118 24.9266 24.8315 21.4867 23.2741C18.0778 21.7305 16.2686 18.9702 15.5306 15.5216C14.4689 10.5688 15.9043 6.24182 19.349 2.53361C20.5773 1.21256 22.1033 0.260015 23.9767 0.042158C26.2954 -0.226687 28.0046 0.862599 29.3901 2.54056C31.1017 4.6102 32.0372 7.0414 32.6347 9.58847C33.0109 11.1969 33.2061 12.8447 33.4822 14.4764C33.4322 14.4833 33.3822 14.4926 33.3322 14.5018Z" fill="black"/>
<path d="M68 27.601C67.9381 30.2546 66.8311 33.256 64.4649 35.7845C61.463 38.9944 56.2854 39.5715 52.8407 37.0546C50.9911 35.7011 50.0412 33.8238 49.708 31.6336C49.1819 28.1966 50.1745 25.0168 51.5481 21.9228C52.4289 19.9389 53.5478 18.0964 55.1927 16.6015C58.3064 13.7717 61.7558 14.3858 64.3982 17.269C66.7835 19.867 67.9952 23.2554 68 27.601Z" fill="black"/>
<path d="M34.7439 13.6026C34.9367 10.4019 35.7675 6.64738 37.9838 3.2845C38.7337 2.14654 39.674 1.1685 40.9404 0.563602C42.8877 -0.370403 44.766 -0.0436169 46.5514 0.994681C48.6748 2.22766 50.1388 4.05859 51.2196 6.17458C52.5622 8.80277 53.1526 11.5886 52.7098 14.5204C52.2004 17.8879 50.7887 20.7756 47.744 22.6761C43.9494 25.0447 38.3933 24.3355 35.9627 19.8254C35.1962 18.4047 34.7439 16.5066 34.7439 13.6026Z" fill="black"/>
<path d="M0 25.8418C0.066655 23.2808 1.03315 20.1404 3.34703 17.4798C4.71346 15.9108 6.37269 14.8099 8.60564 14.8748C10.1911 14.9211 11.4813 15.6373 12.6168 16.6501C14.8046 18.6039 16.121 21.0953 17.1684 23.742C18.0064 25.858 18.6015 28.032 18.5158 30.3264C18.4206 32.8758 17.6469 35.1587 15.5497 36.8436C12.6478 39.1775 8.25808 39.2169 5.0515 36.9618C1.89967 34.7485 0.00476107 30.9035 0 25.8418Z" fill="black"/>
</g>
<defs>
<clipPath id="clip0_24_491">
<rect width="68" height="61" fill="white"/>
</clipPath>
</defs>
</svg>
