<svg width="24" height="24" viewBox="0 0 24 24" fill="none" xmlns="http://www.w3.org/2000/svg">
<path d="M3.59999 8.5999C3.04771 8.5999 2.59999 9.04762 2.59999 9.5999C2.59999 10.1522 3.04771 10.5999 3.59999 10.5999V8.5999ZM20.4 10.5999C20.9523 10.5999 21.4 10.1522 21.4 9.5999C21.4 9.04762 20.9523 8.5999 20.4 8.5999V10.5999ZM3.70077 13.9998C3.14849 13.9998 2.70077 14.4475 2.70077 14.9998C2.70077 15.5521 3.14849 15.9998 3.70077 15.9998V13.9998ZM20.5008 15.9998C21.0531 15.9998 21.5008 15.5521 21.5008 14.9998C21.5008 14.4475 21.0531 13.9998 20.5008 13.9998V15.9998ZM20.6 11.9999C20.6 16.7495 16.7496 20.5999 12 20.5999V22.5999C17.8542 22.5999 22.6 17.8541 22.6 11.9999H20.6ZM12 20.5999C7.25034 20.5999 3.39999 16.7495 3.39999 11.9999H1.39999C1.39999 17.8541 6.14577 22.5999 12 22.5999V20.5999ZM3.39999 11.9999C3.39999 7.25025 7.25034 3.3999 12 3.3999V1.3999C6.14577 1.3999 1.39999 6.14568 1.39999 11.9999H3.39999ZM12 3.3999C16.7496 3.3999 20.6 7.25025 20.6 11.9999H22.6C22.6 6.14568 17.8542 1.3999 12 1.3999V3.3999ZM12 20.5999C11.751 20.5999 11.4349 20.4887 11.0602 20.1265C10.6808 19.7597 10.2933 19.1805 9.9463 18.3873C9.25353 16.8038 8.79999 14.5463 8.79999 11.9999H6.79999C6.79999 14.7554 7.28666 17.2979 8.11399 19.1889C8.527 20.133 9.04461 20.9597 9.6701 21.5644C10.3004 22.1738 11.0892 22.5999 12 22.5999V20.5999ZM8.79999 11.9999C8.79999 9.4535 9.25353 7.19598 9.9463 5.6125C10.2933 4.81927 10.6808 4.24013 11.0602 3.87327C11.4349 3.51106 11.751 3.3999 12 3.3999V1.3999C11.0892 1.3999 10.3004 1.82601 9.6701 2.43537C9.04461 3.04008 8.527 3.86683 8.11399 4.81086C7.28666 6.70188 6.79999 9.24437 6.79999 11.9999H8.79999ZM12 22.5999C12.9108 22.5999 13.6996 22.1738 14.3299 21.5644C14.9554 20.9597 15.473 20.133 15.886 19.1889C16.7133 17.2979 17.2 14.7554 17.2 11.9999H15.2C15.2 14.5463 14.7465 16.8038 14.0537 18.3873C13.7066 19.1805 13.3192 19.7597 12.9398 20.1265C12.5651 20.4887 12.249 20.5999 12 20.5999V22.5999ZM17.2 11.9999C17.2 9.24437 16.7133 6.70188 15.886 4.81086C15.473 3.86683 14.9554 3.04008 14.3299 2.43537C13.6996 1.82601 12.9108 1.3999 12 1.3999V3.3999C12.249 3.3999 12.5651 3.51106 12.9398 3.87327C13.3192 4.24013 13.7066 4.81927 14.0537 5.6125C14.7465 7.19598 15.2 9.4535 15.2 11.9999H17.2ZM3.59999 10.5999H20.4V8.5999H3.59999V10.5999ZM3.70077 15.9998H20.5008V13.9998H3.70077V15.9998Z" fill="white"/>
</svg>
