<svg width="57" height="63" viewBox="0 0 57 63" fill="none" xmlns="http://www.w3.org/2000/svg">
<g clip-path="url(#clip0_24_383)">
<path d="M16.3544 63C16.1018 62.7649 15.8417 62.539 15.5982 62.2964C10.6075 57.2969 5.61983 52.2945 0.632142 47.292C-0.207206 46.4505 -0.208718 46.079 0.621555 45.245C1.76337 44.0986 2.90367 42.9522 4.05002 41.8104C4.71092 41.1523 5.17067 41.1493 5.82853 41.8074C6.17335 42.1516 6.50001 42.5155 6.90078 42.9386C7.64636 42.1743 8.31784 41.4647 9.012 40.7763C9.99956 39.7967 10.9402 38.755 12.011 37.874C16.4421 34.2317 22.8484 34.6866 26.7472 38.8899C27.0844 39.2538 27.4126 39.3888 27.9026 39.3858C31.1541 39.363 34.4057 39.3736 37.6572 39.3736C39.7654 39.3736 40.4414 39.6936 41.7798 41.351C41.9401 41.2024 42.105 41.0598 42.2577 40.9067C44.6155 38.5442 46.9641 36.1726 49.334 33.8223C50.6028 32.5637 52.1363 32.1527 53.8407 32.6789C55.5224 33.1975 56.5614 34.3848 56.9047 36.1135C57.1936 37.5707 56.8397 38.9172 55.7977 39.9726C51.9579 43.8651 48.1165 47.7545 44.2086 51.5773C42.4316 53.315 40.1994 54.1338 37.6995 54.1369C33.2215 54.1414 28.742 54.199 24.2654 54.1081C22.49 54.0717 21.1863 54.6873 20.1231 56.1946C20.5012 56.5539 20.9277 56.93 21.3179 57.3394C21.755 57.7989 21.7882 58.3311 21.3572 58.7663C19.9507 60.1917 18.517 61.5897 17.0939 63C16.8459 63 16.5994 63 16.3544 63ZM18.8362 54.6918C19.0086 54.4765 19.1991 54.2112 19.4169 53.9701C20.5648 52.6872 21.9863 52.1383 23.721 52.1565C28.3019 52.205 32.8827 52.1792 37.4636 52.1701C39.5249 52.1656 41.4017 51.556 42.8793 50.0988C46.7146 46.3201 50.5015 42.4897 54.2974 38.67C54.8585 38.1044 55.1081 37.3902 54.9719 36.5881C54.8071 35.6207 54.2627 34.9322 53.325 34.629C52.3238 34.3045 51.4285 34.5425 50.683 35.2901C47.9623 38.0135 45.2416 40.7368 42.5345 43.4754C42.3349 43.677 42.2048 43.9864 42.1337 44.2684C41.7027 45.9713 40.1737 47.242 38.4512 47.2465C33.8703 47.2572 29.2894 47.2541 24.7086 47.2405C24.4439 47.239 24.0613 47.1647 23.9418 46.9842C23.7497 46.6946 23.6076 46.2655 23.6696 45.9379C23.7618 45.4482 24.2004 45.2768 24.7086 45.2783C28.0009 45.2874 31.2933 45.2829 34.5856 45.2829C35.8121 45.2829 37.0402 45.3056 38.2667 45.2753C39.7548 45.2389 40.6864 43.8302 40.0981 42.5322C39.7034 41.6633 38.9805 41.3403 38.064 41.3403C34.4042 41.3449 30.7428 41.3312 27.0829 41.354C26.4719 41.3585 26.0651 41.1553 25.6734 40.6853C22.6321 37.0233 17.3904 36.2606 13.6957 39.128C11.7554 40.6337 10.0994 42.5095 8.35565 44.1805C11.8522 47.6878 15.2746 51.1193 18.8362 54.6918ZM19.06 58.1688C14.3082 53.3999 9.56552 48.6416 4.88937 43.9485C4.14228 44.6869 3.33318 45.4891 2.58457 46.2306C7.30609 50.9631 12.0518 55.7199 16.7779 60.457C17.534 59.7004 18.3386 58.8922 19.06 58.1688Z" fill="#E99600"/>
<path d="M23.9327 16.2584C22.0256 17.3047 20.3197 18.6861 18.8029 20.3874C19.3987 20.8363 20.0067 21.2472 20.5572 21.7218C21.2075 22.2813 21.8381 22.8697 22.4264 23.4944C23.845 25.0047 24.3683 26.7758 23.6348 28.7562C23.0828 30.2468 22.3901 31.6858 21.7217 33.1294C21.5039 33.5994 20.8944 33.7435 20.4422 33.5251C19.9734 33.2992 19.7541 32.7563 19.9825 32.2135C20.2834 31.4978 20.6615 30.8154 20.961 30.0982C21.2831 29.3294 21.5871 28.5484 21.8381 27.7539C22.1149 26.8744 21.9031 26.0631 21.3511 25.3292C20.3258 23.963 18.9828 22.9683 17.5279 21.9796C17.3571 22.2222 17.1937 22.4451 17.041 22.6756C14.8526 25.9979 13.8031 29.6614 13.7789 33.6313C13.7743 34.3682 13.5445 34.7321 13.0045 34.8398C12.324 34.9748 11.8279 34.5183 11.8143 33.7359C11.7463 29.8813 12.6401 26.2542 14.5532 22.9213C17.9741 16.9589 23.0979 13.3561 29.8429 12.0945C30.6641 11.9413 31.505 11.8898 32.3398 11.7912C32.7345 10.3097 32.0676 8.76153 30.7518 8.17773C29.6569 9.39688 28.2701 10.0777 26.6277 10.1657C25.0473 10.2506 23.6181 9.68499 22.2495 8.97534C21.5629 8.61899 20.902 8.20199 20.2668 7.75922C19.3291 7.10567 18.3265 6.92674 17.2436 7.24063C16.6962 7.39984 16.2213 7.38165 15.8931 6.86912C15.5785 6.37782 15.7494 5.93504 16.1003 5.52714C17.8002 3.56043 19.6785 1.81966 22.0574 0.685424C24.1716 -0.321436 26.2466 -0.166768 28.3109 0.820379C30.2694 1.75749 31.0936 3.43912 31.3129 5.49075C31.3628 5.95476 31.4747 6.25651 31.9209 6.50671C32.4638 6.80998 32.922 7.2664 33.3909 7.63639C33.9822 7.2103 34.6295 6.76297 35.248 6.28077C35.3826 6.17463 35.4794 5.93959 35.4839 5.75915C35.6473 0.527723 41.4047 -1.04474 44.8135 0.693005C47.1955 1.90761 49.1282 3.63322 50.8296 5.65603C51.1548 6.04271 51.2138 6.48093 50.9158 6.90096C50.627 7.31038 50.2277 7.42107 49.7271 7.27095C48.5369 6.91158 47.4632 7.11628 46.4317 7.85475C44.8937 8.95411 43.2301 9.81691 41.3216 10.0929C39.3374 10.3795 37.6602 9.76081 36.2522 8.35666C36.1947 8.29904 36.1327 8.24749 36.0768 8.19745C34.8291 8.67965 34.2741 9.88515 34.4344 11.7609C35.6125 11.9413 36.8012 12.0823 37.9748 12.3113C46.1762 13.9187 53.1465 21.0228 54.6211 29.2535C54.7451 29.945 54.4607 30.4681 53.8845 30.6077C53.328 30.7426 52.8259 30.3787 52.6777 29.6872C52.1771 27.3475 51.3589 25.1382 50.0296 23.038C49.8239 23.2958 49.6046 23.5035 49.464 23.7552C48.8969 24.7712 48.3569 25.8008 47.8019 26.8243C47.3936 27.578 47.0276 28.3619 46.5588 29.0746C45.8117 30.2104 44.7394 30.7987 43.3496 30.7669C42.1639 30.7396 40.9783 30.7426 39.7911 30.7381C38.1971 30.732 36.96 31.4159 36.048 32.7093C35.2707 33.8102 34.7383 35.0142 34.5115 36.3501C34.3829 37.1068 33.9519 37.4843 33.3349 37.3979C32.733 37.3145 32.432 36.805 32.5515 36.0499C32.8585 34.1226 33.6616 32.4151 34.9198 30.9367C36.5244 29.0504 38.6674 28.5924 41.013 28.7092C41.7889 28.7486 42.5662 28.7653 43.342 28.785C44.0075 28.8017 44.5489 28.5348 44.8997 27.9737C45.2567 27.4036 45.6136 26.8243 45.8797 26.2087C46.6389 24.4513 47.51 22.7696 48.9513 21.2669C47.6083 19.9704 46.2911 18.6997 44.9754 17.429C44.3795 17.9673 43.9182 18.4313 43.4101 18.8362C42.0686 19.9052 40.576 20.2813 38.9381 19.6308C37.7509 19.1592 36.7845 19.3699 35.7713 20.1706C34.0185 21.5535 31.9814 22.1722 29.7416 21.7688C28.2217 21.4959 27.0647 20.5573 26.1301 19.3851C25.3543 18.4116 24.6934 17.3502 23.9327 16.2584ZM43.1893 16.4783C38.0231 13.256 30.7685 13.0179 25.8549 15.3956C26.602 16.8164 27.4338 18.169 28.7419 19.1501C29.5042 19.7217 30.3465 19.9628 31.325 19.8582C32.7164 19.7096 33.9126 19.1668 34.9818 18.2964C35.862 17.5791 36.8526 17.1985 37.9899 17.3699C38.5903 17.4593 39.1846 17.6261 39.7654 17.8096C40.34 17.9901 40.9087 18.031 41.4214 17.7202C42.0203 17.3577 42.5723 16.9165 43.1893 16.4783ZM19.3291 5.00249C20.3106 5.57112 21.2377 6.15795 22.2086 6.65835C23.1841 7.16178 24.1747 7.66217 25.2091 8.01397C26.4704 8.44158 27.6667 8.15954 28.7994 7.29218C27.9434 6.92826 27.16 6.63257 26.4144 6.26258C26.1301 6.12156 25.7914 5.84558 25.7263 5.57112C25.6553 5.2724 25.7687 4.78413 25.988 4.59914C26.2284 4.39594 26.7169 4.32013 27.033 4.41111C27.774 4.62643 28.4758 4.97519 29.2319 5.28604C29.0036 3.15405 26.7351 1.63466 24.4832 2.01678C22.3644 2.37616 20.8082 3.69236 19.3291 5.00249ZM38.0171 7.29976C38.9502 7.98971 39.9045 8.38244 40.9132 8.13527C42.0082 7.86688 43.0834 7.44533 44.0997 6.951C45.2627 6.3854 46.3516 5.66513 47.4843 5.00552C46.3546 3.95014 45.0691 2.93569 43.5023 2.31702C41.8796 1.67712 40.3703 2.01982 38.9442 2.86594C38.0655 3.38757 37.7056 4.24886 37.571 5.31182C38.3211 4.9949 38.9759 4.71135 39.6353 4.44295C40.2977 4.17304 40.8679 4.34742 41.1008 4.87511C41.3533 5.44223 41.0902 5.98357 40.4021 6.28381C39.6398 6.61589 38.8701 6.93735 38.0171 7.29976Z" fill="#E99600"/>
</g>
<defs>
<clipPath id="clip0_24_383">
<rect width="57" height="63" fill="white"/>
</clipPath>
</defs>
</svg>
