<?xml version="1.0" encoding="UTF-8"?>
<svg id="Layer_1" data-name="Layer 1" xmlns="http://www.w3.org/2000/svg" viewBox="0 0 39.44 44">
  <defs>
    <style>
      .cls-1 {
        fill: #fff;
      }
    </style>
  </defs>
  <g id="NewGroupe62">
    <g id="NewGroup0-37">
      <g>
        <path class="cls-1" d="M36.59,31.91c-.51-.09-.98-.13-1.43-.13-.85,0-1.65,.16-2.37,.47-.57,.24-1.14,.37-1.7,.37s-1.09-.11-1.63-.34c-.78-.32-1.55-.48-2.34-.48-.06,0-.11,0-.17,0h-.01c-.1,0-.2,0-.3,.01-.24,0-.48,.01-.74,.04-1.7,.17-3.01,1.51-3.07,3.1-.05,1.59,1.19,3.02,2.84,3.26,.47,.07,.9,.1,1.31,.1,.92,0,1.73-.16,2.5-.49,.54-.23,1.08-.35,1.62-.35,.5,0,1,.1,1.49,.31,.85,.36,1.74,.52,2.83,.52,.17,0,.34,0,.53-.01,1.83-.08,3.23-1.3,3.41-2.96,.08-.76-.15-1.54-.65-2.18-.52-.66-1.26-1.1-2.1-1.24h0Z"/>
        <path class="cls-1" d="M38.19,38.8c-.16,.08-.32,.17-.46,.25-.28,.16-.54,.31-.78,.37-.6,.16-1.18,.24-1.73,.24-.76,0-1.49-.16-2.17-.47-.62-.28-1.25-.42-1.88-.42s-1.22,.13-1.84,.38c-.85,.35-1.63,.52-2.39,.52-.98,0-1.89-.29-2.78-.88l-1.27-.84v1.53c0,.12,0,.24,0,.36,0,.28-.01,.57,.01,.86,.13,1.65,1.33,2.97,2.92,3.2,.45,.07,.86,.1,1.25,.1,.9,0,1.7-.17,2.44-.52,.55-.26,1.1-.39,1.64-.39,.49,0,.99,.11,1.47,.32,1.04,.46,2.08,.55,2.96,.59,.05,0,.1,0,.15,0,1.14,0,2.19-.47,2.87-1.28,.51-.6,1.05-1.67,.76-3.32l-.19-1.09-.99,.5h0Z"/>
        <path class="cls-1" d="M4.86,41.04c.13,.89,.9,1.54,1.81,1.53l15.44-.2c-.47-.67-.77-1.48-.84-2.36-.03-.36-.02-.7-.02-1.02,0-.13,0-.25,0-.37v-3.1c0-.13,0-.26,0-.39,.07-2.32,1.84-4.26,4.11-4.51,.31-.03,.61-.04,.87-.05,.11,0,.21,0,.31-.01h.02s.02,0,.02,0c.07,0,.14,0,.21,0,.44,0,.88,.04,1.32,.13l1.26-9.45c.14-1.07-.7-2.02-1.78-2.02H3.78c-1.1,0-1.94,.96-1.78,2.03l2.86,19.8h0Z"/>
        <path class="cls-1" d="M.82,17.22H30.61c.45,0,.82-.37,.82-.82v-1.91c0-.45-.37-.82-.82-.82H15.85v-4.24l-2.29-2.58c-.28-.31-.68-.49-1.1-.49h-3.55c-.41,0-.8,.17-1.08,.47l-2.43,2.61v4.24H.82c-.45,0-.82,.37-.82,.82v1.91c0,.45,.37,.82,.82,.82H.82Z"/>
        <path class="cls-1" d="M9.09,4.85h3.21c.45,0,.82-.37,.82-.82V.82c0-.45-.37-.82-.82-.82h-3.21c-.45,0-.82,.37-.82,.82v3.21c0,.45,.37,.82,.82,.82h0Z"/>
        <path class="cls-1" d="M29.44,3.08c-2.45,.05-4.89,.09-7.34,.14-.5,.01-.95,.19-1.3,.52-1.18,1.1-2.35,2.2-3.51,3.31-.17,.16-.35,.35-.24,.6,.12,.28,.42,.3,.7,.32,.05,0,.11,0,.16,0,.7-.03,1.39-.05,2.09-.08,.08,0,.16,0,.25,0,.04,.36,.1,.7,.12,1.03,0,.02,0,.03,0,.04-.46,.2-.77,.61-.77,1.09v.48c0,.67,.62,1.2,1.38,1.2h3.16c.75-.02,1.36-.56,1.36-1.22v-.48c0-.54-.41-.99-.96-1.14,0,0,0-.01,0-.02,.46-1.14,.94-2.28,1.4-3.43,.06-.14,.14-.19,.3-.19,1.03-.01,2.06-.04,3.08-.05,.09,0,.18,0,.28,0-.02-.71-.04-1.39-.05-2.09-.05,0-.08,0-.11,0h0Z"/>
        <path class="cls-1" d="M29.25,7.66c-.09-.37-.15-.75-.23-1.13-.81,.02-1.61,.03-2.42,.05,0,.04-.01,.06,0,.07,.43,1.93,1.54,3.46,3.29,4.57,.33,.21,.69,.36,1.05,.52,.16,.07,.35,.08,.47-.1,.12-.18,.05-.34-.09-.48-.17-.17-.34-.33-.5-.5-.79-.88-1.29-1.88-1.57-2.99h0Z"/>
        <path class="cls-1" d="M31.96,3.43c-.3-.12-.59-.23-.91-.36,.02,.71,.04,1.36,.05,2.08,.32-.11,.61-.22,.9-.32,.42-.15,.42-.14,.41-.67q-.01-.56-.46-.73h0Z"/>
      </g>
    </g>
  </g>
</svg>