<?xml version="1.0" encoding="UTF-8"?>
<svg id="Layer_1" data-name="Layer 1" xmlns="http://www.w3.org/2000/svg" viewBox="0 0 26.99 44">
  <defs>
    <style>
      .cls-1 {
        fill: #fff;
      }
    </style>
  </defs>
  <g id="NewGroupe84">
    <g id="NewGroup0-15">
      <g>
        <path class="cls-1" d="M18.54,36.52c-1.75,.27-3.43,.59-5.09,.58-1.65,0-3.3-.32-5-.59-.64-.1-1.24,.31-1.38,.94-.36,1.65-.74,3.35-1.11,5.07-.17,.76,.41,1.48,1.19,1.48h12.7c.78,0,1.36-.72,1.19-1.48-.38-1.73-.75-3.42-1.12-5.06-.14-.63-.74-1.04-1.37-.94h0Z"/>
        <path class="cls-1" d="M10.14,7.47h-1.95c-.25,.44-.71,.73-1.24,.73-.79,0-1.43-.66-1.43-1.46s.64-1.46,1.43-1.46c.59,0,1.09,.36,1.31,.88h1.88c.36,0,.66,.3,.66,.66s-.3,.66-.66,.66h0ZM22.29,3.28H4.7c-.79,0-1.4,.78-1.32,1.67,.39,4.44,.77,8.82,1.16,13.23,.07,.78,.64,1.37,1.32,1.37h15.28c.68,0,1.25-.59,1.32-1.37,.39-4.41,.77-8.79,1.16-13.23,.08-.9-.54-1.67-1.32-1.67h0Z"/>
        <path class="cls-1" d="M22.8,0H4.16c-.45,0-.82,.37-.82,.82v.41c0,.45,.37,.82,.82,.82H22.8c.45,0,.82-.37,.82-.82v-.41c0-.45-.37-.82-.82-.82h0Z"/>
        <path class="cls-1" d="M15.71,33.71c-.06,.01-.12,.02-.17,.02-.42,0-.79-.29-.87-.72-.09-.48,.22-.95,.7-1.05,.04,0,4.16-.88,6.25-4.5,.25-.43,.79-.57,1.22-.33,.43,.25,.57,.79,.33,1.22-2.5,4.34-7.25,5.32-7.45,5.36h0Zm11.27-10.4c.1-.71-.44-1.34-1.16-1.34H1.17c-.71,0-1.26,.63-1.16,1.34,.89,6.26,5.98,11.9,13.35,11.96,7.49,.07,12.71-5.59,13.62-11.96h0Z"/>
      </g>
    </g>
  </g>
</svg>