<?xml version="1.0" encoding="UTF-8"?>
<svg id="Layer_1" data-name="Layer 1" xmlns="http://www.w3.org/2000/svg" viewBox="0 0 44 39.79">
  <defs>
    <style>
      .cls-1 {
        fill: #fff;
      }
    </style>
  </defs>
  <g id="NewGroupe85">
    <g id="NewGroup0-14">
      <g>
        <path class="cls-1" d="M32.61,33.47c.09-1.59,.68-2.99,1.73-4.19,1.93-2.22,5.71-3.41,9.26-1.08,.01-.15,.04-.28,.03-.41-.04-1.25,0-2.51-.16-3.74-.15-1.27-.91-1.93-2.2-1.96-2.23-.06-4.45-.05-6.68-.06-1.49,0-2.99-.05-4.46,.29-2.8,.65-5.17,2.11-7.34,3.95-.12,.11-.25,.21-.42,.34-.51-1.75-.43-3.39,.4-4.97,.63-1.21,1.54-2.21,2.61-3.03,1.36-1.06,2.78-2.03,4.19-3.02,1.22-.86,2.43-1.74,3.41-2.89,2.84-3.35,2.45-8.45-.85-11.11-2.51-2.02-5.97-2.11-8.78-.22-1.85,1.25-3.11,2.99-4.1,4.94-.36,.7-.65,1.44-.99,2.21,.84,.27,1.57,.51,2.36,.77,.07-.16,.13-.31,.19-.46,.65-1.58,1.44-3.07,2.63-4.31,1.12-1.17,2.43-2,4.11-2.04,2.44-.06,4.51,1.78,4.8,4.21,.23,1.99-.33,3.72-1.85,5.02-1.18,1.01-2.47,1.89-3.74,2.78-1.44,1.01-2.88,2.01-4.11,3.27-1.41,1.44-2.51,3.06-2.89,5.09-.34,1.82-.11,3.58,.54,5.3,.11,.3,.08,.48-.13,.72-1.03,1.17-2.02,2.37-2.71,3.78-.51,1.03-.81,2.11-.66,3.27,.22,1.77,1.65,3.06,3.47,3.09,2.04,.04,4.09,.01,6.13,.02,2.64,0,5.28,0,7.92,0,.15,0,.29-.01,.52-.03-1.56-1.57-2.34-3.38-2.22-5.52h0Z"/>
        <path class="cls-1" d="M33.23,18.36c-.02,.42,0,.85,0,1.33h.53c1.97,0,3.93,0,5.9,0,.38,0,.52-.11,.48-.49-.03-.29,0-.58,0-.87-.03-.66-.47-1.14-1.13-1.15-1.56-.02-3.11-.02-4.67,0-.66,.01-1.09,.49-1.11,1.16h0Z"/>
        <path class="cls-1" d="M12.59,33.05c2.47-7.36,4.68-14.12,7.2-21.59-.78-.25-1.54-.5-2.35-.77-2.52,7.45-4.72,14.21-7.2,21.59l2.35,.77h0Z"/>
        <path class="cls-1" d="M11.97,34.89s.01-.03,.02-.05l-2.35-.77s0,.02-.01,.04c-1.01-.48-1.91-.04-2.82,.28-1.71,.61-3.41,1.23-5.13,1.8-1.03,.34-1.39,1.17-1.64,2.08-.1,.35,.14,.56,.58,.56,1.19,0,2.38,0,3.57,0,1.46,0,2.92,0,4.38,0,0-.03,0-.05,0-.08,0-.88,.72-1.6,1.6-1.6s1.6,.72,1.6,1.6c0,.03,0,.05,0,.07h.11c.8,0,1.04-.24,1.05-1.03,0-.49-.02-.98,0-1.46,.03-.69-.22-1.19-.95-1.44h0Z"/>
        <path class="cls-1" d="M39.71,29.87c-2.37,0-4.29,1.92-4.29,4.29s1.92,4.29,4.29,4.29,4.29-1.92,4.29-4.29-1.92-4.29-4.29-4.29h0Z"/>
        <path class="cls-1" d="M10.18,37.67c-.59,0-1.06,.48-1.06,1.06s.48,1.06,1.06,1.06,1.06-.48,1.06-1.06-.48-1.06-1.06-1.06h0Z"/>
      </g>
    </g>
  </g>
</svg>