<?xml version="1.0" encoding="UTF-8"?>
<svg id="Layer_1" data-name="Layer 1" xmlns="http://www.w3.org/2000/svg" viewBox="0 0 44 36.02">
  <defs>
    <style>
      .cls-1 {
        fill: #fff;
      }
    </style>
  </defs>
  <g id="NewGroupe50">
    <g id="NewGroup0-49">
      <g>
        <path class="cls-1" d="M7.66,18.23c-.5,.55-.5,1.27,0,1.77,.51,.5,1.16,.5,1.72-.05,1.86-1.84,3.71-3.7,5.57-5.55,3.54-3.53,7.08-7.06,10.62-10.59,.09-.09,.19-.17,.39-.36,.1,.15,.17,.32,.29,.44,5.14,5.15,10.29,10.3,15.44,15.43,.25,.25,.59,.48,.93,.55,.68,.14,1.09-.28,1.37-.85v-.69c-.22-.28-.41-.58-.66-.83C37.62,11.76,31.9,6.03,26.17,.31c-.09-.09-.18-.18-.33-.31-.83,.84-1.65,1.69-2.48,2.51-5.12,5.13-10.25,10.25-15.38,15.38-.11,.11-.23,.22-.33,.34h0Z"/>
        <path class="cls-1" d="M4.21,15.29c.46,.42,.99,.77,1.56,1.2,.05-.52,.09-.97,.13-1.41,.03-.33,.09-.66,.07-.98-.04-.62,.23-1.09,.61-1.54,.47-.57,.9-1.18,1.4-1.84-.9-.07-1.71-.16-2.53-.18-.47-.01-.85-.15-1.21-.45-.64-.52-1.31-1.01-2.04-1.56-.05,.58-.09,1.09-.13,1.6-.04,.46-.05,.92-.11,1.37-.02,.17-.1,.35-.21,.5-.55,.75-1.12,1.48-1.74,2.31,.69,.06,1.3,.16,1.92,.15,.89-.02,1.63,.24,2.29,.85h0Z"/>
        <path class="cls-1" d="M8.92,5.87c-.15,.8-.34,1.59-.54,2.48,.82-.29,1.55-.58,2.3-.81,.3-.09,.64-.11,.95-.06,.78,.14,1.55,.33,2.4,.52-.29-.82-.58-1.57-.81-2.33-.09-.3-.11-.64-.05-.95,.14-.77,.33-1.52,.53-2.37-.85,.3-1.6,.59-2.37,.83-.26,.08-.56,.1-.83,.05-.8-.15-1.58-.35-2.45-.54,.3,.84,.6,1.61,.85,2.39,.08,.24,.09,.53,.04,.78h0Z"/>
        <path class="cls-1" d="M39.87,19.94c-4.61-4.59-9.22-9.17-13.84-13.76-.04-.04-.08-.08-.25-.23-.22,.28-.42,.58-.67,.82-4.39,4.37-8.78,8.72-13.16,13.09-.16,.16-.29,.44-.29,.66-.02,5.04-.01,10.08-.01,15.13,0,.11,.01,.22,.02,.36h9.99v-7.55c0-2.34,1.9-4.24,4.24-4.24s4.24,1.9,4.24,4.24v7.55h9.96c0-.16,.02-.3,.02-.44,0-5.01,0-10.03-.01-15.04,0-.2-.09-.45-.23-.59h0Z"/>
      </g>
    </g>
  </g>
</svg>