<svg width="49" height="42" viewBox="0 0 49 42" fill="none" xmlns="http://www.w3.org/2000/svg">
<path d="M27.8817 42V29.3706C27.8817 21.4406 29.63 14.979 33.1268 9.98601C36.7155 4.8951 42.0066 1.56643 49 0V9.54545C45.8714 10.3287 43.3869 11.7972 41.5465 13.951C39.7061 16.007 38.5099 18.5035 37.9577 21.4406H46.2394V42H27.8817ZM0 42V29.3706C0 21.4406 1.74836 14.979 5.24507 9.98601C8.8338 4.8951 14.0789 1.56643 20.9803 0V9.54545C17.8516 10.3287 15.3671 11.7972 13.5268 13.951C11.6864 16.007 10.4901 18.5035 9.93803 21.4406H18.2197V42H0Z" fill="#E99600"/>
</svg>
