<?xml version="1.0" encoding="UTF-8"?>
<svg id="Layer_1" data-name="Layer 1" xmlns="http://www.w3.org/2000/svg" viewBox="0 0 43.87 44">
  <defs>
    <style>
      .cls-1 {
        fill: #fff;
      }
    </style>
  </defs>
  <g id="NewGroupe19">
    <g id="NewGroup0-80">
      <g>
        <path class="cls-1" d="M41.52,41.4c-.18,.6-.73,1.02-1.36,1.03l-7.13,.14c-.2,0-.4-.03-.58-.11-.39-.16-.7-.49-.83-.92-.57-1.85-1.58-5.91-1.04-9.97,.73-5.51,4.14-8.02,4.54-8.57,.32-.44,1.1-2.07,1.31-3.25,.08-.44,.47-.75,.91-.74h.2c-.03,.79-.13,2.47-.48,4.53-.42,2.46-1.29,5.94-3.07,8.97l-.9-.06c-.56-.04-1.04,.41-1.03,.98,.06,4.57,.62,7.23,1.32,7.49,.76,.27,5.73,.49,6.75-.66,.76-.86,.84-5.29,.84-7.5,0-.64-.61-1.1-1.22-.93l-.75,.21c-1.11,.3-2.24,.48-3.39,.51,1.63-3.04,2.45-6.39,2.86-8.79,.37-2.15,.47-3.87,.5-4.69h.17c.11,0,.22,.03,.32,.07,.28,.11,.49,.37,.54,.68,.32,1.8,1.38,7.37,1.93,9.26,.64,2.18,.88,7.95-.4,12.32h0Zm-.12-21.83c-.14-.79-.66-1.44-1.4-1.75-.26-.11-.54-.17-.82-.17l-1.8-.05c-.56-.02-1.1,.17-1.53,.52-.43,.35-.72,.84-.82,1.39-.17,.95-.83,2.32-1.04,2.63-.04,.05-.15,.15-.23,.23-1.07,1.05-3.9,3.84-4.59,9.02-.56,4.27,.44,8.46,1.09,10.57,.25,.83,.86,1.49,1.65,1.82,.37,.15,.75,.22,1.15,.22l7.13-.14c.61-.01,1.19-.21,1.68-.58,.49-.37,.84-.88,1.02-1.47,.78-2.66,.96-5.48,.98-7.37,.02-2.3-.19-4.44-.58-5.75-.51-1.75-1.55-7.15-1.89-9.11h0Z"/>
        <path class="cls-1" d="M40.39,12.34c.09,0,.17,0,.25,0,.7,.03,1.4,.05,2.09,.08,.05,0,.11,0,.16,0,.28-.01,.58-.04,.7-.32,.11-.25-.07-.44-.24-.6-1.17-1.11-2.34-2.21-3.51-3.31-.35-.33-.8-.51-1.3-.52-2.45-.05-4.89-.1-7.34-.14-.03,0-.06,0-.11,0-.02,.7-.04,1.38-.05,2.09,.1,0,.19,0,.28,0,1.03,.02,2.06,.04,3.08,.06,.16,0,.24,.05,.3,.19,.46,1.14,.94,2.28,1.4,3.43,0,0,0,.01,0,.02-.55,.15-.95,.61-.96,1.14v.48c0,.67,.6,1.21,1.35,1.21h3.16c.75,.02,1.37-.52,1.37-1.18v-.48c0-.48-.31-.89-.76-1.09,0-.01,0-.03,0-.04,.02-.33,.07-.66,.12-1.03h0Z"/>
        <path class="cls-1" d="M29.32,15.6c-.14,.14-.21,.3-.09,.48,.12,.18,.3,.17,.47,.1,.36-.16,.73-.31,1.05-.52,1.76-1.11,2.86-2.64,3.29-4.57,0-.01,0-.03,0-.07-.81-.02-1.61-.03-2.42-.05-.08,.38-.14,.76-.23,1.13-.28,1.1-.78,2.11-1.57,2.99-.16,.17-.33,.34-.5,.5h0Z"/>
        <path class="cls-1" d="M28.22,8.61c-.01,.53-.01,.52,.41,.67,.29,.1,.58,.21,.9,.32,.02-.72,.04-1.37,.05-2.08-.32,.13-.61,.24-.91,.36q-.44,.18-.46,.73h0Z"/>
        <path class="cls-1" d="M.82,36.5H26.04v-1.78H1.78V1.78H36.29v2.8h1.78V.82c0-.45-.37-.82-.82-.82H.82C.37,0,0,.37,0,.82V35.67c0,.45,.37,.82,.82,.82H.82Z"/>
        <polygon class="cls-1" points="6.97 9.11 10.07 10.27 9.36 7.03 10.52 3.93 7.28 4.63 4.18 3.48 4.88 6.71 3.73 9.82 6.97 9.11 6.97 9.11"/>
        <polygon class="cls-1" points="5.66 19.02 7.53 19.72 7.11 17.77 7.8 15.89 5.85 16.32 3.98 15.62 4.4 17.58 3.71 19.45 5.66 19.02 5.66 19.02"/>
        <polygon class="cls-1" points="17.39 11.41 19.93 12.35 19.35 9.71 20.29 7.17 17.65 7.75 15.12 6.81 15.69 9.45 14.75 11.98 17.39 11.41 17.39 11.41"/>
        <path class="cls-1" d="M6.22,31.37c.24,0,.48-.1,.65-.28L22.45,14.34c.33-.36,.31-.92-.05-1.26-.36-.33-.92-.31-1.26,.05L5.57,29.88c-.33,.36-.31,.92,.05,1.26,.17,.16,.39,.24,.61,.24h0Z"/>
        <path class="cls-1" d="M15.45,28.09c.24,0,.48-.09,.65-.28l10.32-11.07c.33-.36,.31-.92-.04-1.26-.36-.33-.92-.31-1.26,.04l-10.32,11.07c-.33,.36-.31,.92,.04,1.26,.17,.16,.39,.24,.61,.24h0Z"/>
      </g>
    </g>
  </g>
</svg>